<?xml version="1.0" standalone="no"?>
<!DOCTYPE svg PUBLIC "-//W3C//DTD SVG 20010904//EN"
 "http://www.w3.org/TR/2001/REC-SVG-20010904/DTD/svg10.dtd">
<svg version="1.0" xmlns="http://www.w3.org/2000/svg"
 width="500.000000pt" height="500.000000pt" viewBox="0 0 500.000000 500.000000"
 preserveAspectRatio="xMidYMid meet">

<g transform="translate(0.000000,500.000000) scale(0.100000,-0.100000)"
fill="#000000" stroke="none">
<path d="M0 2500 l0 -2500 2500 0 2500 0 0 2500 0 2500 -2500 0 -2500 0 0
-2500z m2447 1284 c3 -8 1 -20 -6 -27 -7 -7 -11 -52 -11 -118 l0 -108 398 -3
397 -3 50 -27 c63 -33 98 -70 125 -132 54 -121 7 -265 -108 -333 -46 -28 -50
-28 -252 -33 l-205 -5 -3 -47 c-2 -29 1 -48 7 -48 6 0 11 -11 11 -25 0 -20 -5
-25 -25 -25 -20 0 -25 5 -25 25 0 14 5 25 10 25 6 0 10 25 10 55 l0 55 186 0
c214 0 246 7 310 63 65 57 88 107 88 187 -1 97 -49 175 -139 223 -39 21 -52
22 -447 25 l-408 3 0 114 c0 65 -4 116 -10 120 -5 3 -10 17 -10 31 0 19 5 24
25 24 14 0 28 -7 32 -16z m93 -39 c10 -12 9 -20 -4 -40 -11 -17 -16 -41 -14
-68 l3 -42 365 -5 c358 -5 366 -5 412 -29 63 -31 121 -88 155 -153 25 -47 28
-63 28 -148 0 -84 -3 -101 -27 -145 -32 -60 -97 -125 -158 -156 -40 -21 -62
-24 -190 -27 -80 -2 -149 -8 -154 -13 -6 -5 -20 -9 -33 -9 -18 0 -23 6 -23 25
0 20 5 25 25 25 14 0 25 -5 25 -11 0 -8 42 -10 143 -7 116 3 150 8 188 25 173
78 242 279 153 443 -34 63 -81 105 -154 139 l-55 26 -357 3 -358 4 0 51 c0 29
-7 60 -15 71 -27 36 16 76 45 41z m-210 -159 c0 -24 -27 -39 -49 -27 -12 7
-111 11 -269 11 l-249 0 -61 -30 c-95 -48 -153 -127 -173 -236 -24 -131 59
-279 189 -336 56 -25 184 -36 217 -18 28 15 55 7 55 -15 0 -21 -27 -30 -53
-17 -12 6 -60 13 -107 15 -63 3 -97 9 -130 26 -61 31 -126 95 -158 156 -24 44
-27 61 -27 145 0 85 3 101 28 148 34 65 93 123 155 154 45 22 59 23 301 26
198 2 258 6 274 17 23 16 57 4 57 -19z m-434 -46 c5 -5 98 -11 214 -12 l205
-3 3 -32 3 -33 427 0 c267 0 441 -4 465 -11 69 -19 128 -85 142 -160 16 -85
-54 -194 -140 -218 -24 -6 -134 -11 -277 -11 l-238 0 0 -215 c0 -137 -4 -215
-10 -215 -6 0 -10 82 -10 225 l0 225 258 0 c229 0 262 2 298 19 135 61 136
255 2 320 -43 20 -56 21 -491 21 l-447 0 0 35 0 35 -200 0 c-127 0 -200 -4
-200 -10 0 -17 -47 -11 -54 6 -12 31 27 57 50 34z m172 -88 c4 -27 -23 -40
-49 -24 -11 7 -60 12 -116 12 -78 0 -105 -4 -141 -21 -132 -65 -133 -252 -1
-319 36 -19 56 -20 256 -18 l218 3 3 50 c2 28 1 87 -3 133 l-7 82 -195 0
c-196 0 -223 -4 -250 -39 -16 -20 -17 -73 -2 -88 18 -18 2 -45 -23 -41 -15 2
-24 11 -26 26 -2 12 1 22 6 22 5 0 12 19 15 42 3 26 15 51 31 67 l26 26 218 0
217 0 3 -152 3 -153 -213 0 c-118 0 -230 5 -251 11 -43 12 -102 59 -121 98
-40 79 -26 164 38 227 51 51 93 64 213 64 54 0 95 4 98 11 12 18 50 6 53 -19z
m1006 -68 c21 -8 21 -43 0 -51 -9 -3 -25 -1 -35 5 -13 9 -121 12 -369 12
l-350 0 0 -135 0 -135 40 0 40 0 0 -225 c0 -143 -4 -225 -10 -225 -6 0 -10 78
-10 214 l0 215 -37 3 -38 3 0 150 0 150 365 3 c223 1 368 6 374 12 12 12 10
12 30 4z m-101 -98 c3 -8 -1 -22 -8 -33 -12 -15 -17 -16 -34 -5 -15 9 -88 12
-271 12 l-250 0 0 -50 0 -50 395 0 395 0 17 26 c16 25 16 27 -2 40 -10 8 -23
14 -28 14 -17 0 -2 45 17 48 24 5 32 -10 34 -63 2 -36 -2 -47 -24 -64 -26 -20
-37 -21 -420 -21 l-394 0 0 70 0 70 260 0 c167 0 260 4 260 10 0 15 47 12 53
-4z m-803 -76 l0 -70 -155 0 -155 0 0 70 0 70 155 0 155 0 0 -70z m-561 33 c6
-11 6 -24 0 -35 -7 -13 -4 -29 10 -55 28 -56 65 -91 123 -118 47 -22 67 -25
176 -25 l122 0 0 -115 c0 -70 4 -115 10 -115 16 0 11 -40 -6 -47 -8 -3 -23 1
-32 10 -14 15 -14 18 2 35 14 16 16 36 14 118 l-3 99 -135 5 c-125 5 -139 7
-182 33 -52 30 -89 73 -113 130 -8 20 -20 37 -25 37 -15 0 -12 47 3 53 21 9
26 8 36 -10z m979 -390 l-3 -228 -2 218 -3 217 -55 0 -55 0 -3 -217 -2 -218
-3 228 -2 227 65 0 65 0 -2 -227z m-463 167 c3 -6 48 -10 101 -10 l94 0 0
-190 c0 -120 -4 -190 -10 -190 -6 0 -10 68 -10 185 l0 185 -82 0 c-62 0 -86
-4 -100 -17 -17 -15 -20 -15 -35 -1 -9 9 -13 24 -10 32 7 18 42 22 52 6z m72
-106 c3 -9 1 -25 -5 -35 -7 -11 -13 -68 -14 -136 l-2 -118 -3 115 c-2 63 -8
125 -14 137 -7 12 -9 29 -6 37 8 21 36 20 44 0z m70 -130 c3 -8 1 -20 -6 -27
-6 -6 -12 -38 -13 -71 l-2 -61 -3 59 c-2 32 -10 65 -18 73 -8 7 -12 20 -9 28
8 20 43 19 51 -1z m721 -8 c5 -24 -17 -37 -39 -25 -10 5 -56 9 -103 9 l-85 0
-4 -67 -3 -68 -2 78 -2 77 94 0 c56 0 98 4 101 11 10 16 39 6 43 -15z m-142
-87 c3 -6 1 -22 -6 -35 -13 -24 -13 -24 -28 -3 -7 11 -11 26 -8 34 6 18 32 20
42 4z m-1053 -878 c29 -11 34 -28 15 -54 -12 -15 -17 -15 -57 -2 -49 18 -84
12 -79 -13 2 -11 24 -24 57 -34 84 -27 110 -61 90 -118 -19 -54 -99 -76 -180
-49 -52 18 -62 31 -48 62 l12 26 39 -20 c49 -25 103 -22 103 5 0 14 -14 24
-55 38 -68 22 -104 60 -95 97 18 71 103 98 198 62z m289 -7 c37 -19 39 -26 19
-53 -18 -23 -19 -23 -42 -7 -26 18 -71 21 -99 6 -26 -14 -43 -71 -31 -103 11
-29 47 -57 74 -57 10 0 32 7 48 16 28 14 32 14 50 -2 26 -23 25 -27 -20 -52
-134 -76 -280 56 -215 193 35 75 133 101 216 59z m591 7 c29 -11 34 -28 15
-54 -12 -15 -17 -15 -57 -2 -49 18 -84 12 -79 -13 2 -11 24 -24 57 -34 84 -27
110 -61 90 -118 -19 -54 -99 -76 -180 -49 -52 18 -62 31 -48 62 l12 26 39 -20
c49 -25 103 -22 103 5 0 14 -14 24 -55 38 -57 19 -100 56 -100 86 0 27 29 63
64 78 32 15 92 13 139 -5z m270 0 c29 -11 34 -28 15 -54 -12 -15 -17 -15 -57
-2 -49 18 -84 12 -79 -13 2 -11 24 -24 57 -34 84 -27 110 -61 90 -118 -19 -54
-99 -76 -180 -49 -52 18 -62 31 -48 62 l12 26 39 -20 c49 -25 103 -22 103 5 0
14 -14 24 -55 38 -57 19 -100 56 -100 86 0 27 29 63 64 78 32 15 92 13 139 -5z
m392 8 c76 -21 120 -83 112 -157 -9 -80 -70 -132 -157 -132 -65 0 -110 27
-138 83 -42 83 -6 170 83 202 49 17 51 17 100 4z m-1978 -19 c42 -25 63 -68
63 -129 0 -39 -6 -56 -27 -82 -38 -45 -80 -59 -173 -59 l-80 0 0 145 0 145 93
0 c74 0 98 -4 124 -20z m183 -125 l0 -145 -40 0 -40 0 0 145 0 145 40 0 40 0
0 -145z m690 48 c0 -106 12 -133 58 -133 51 0 62 23 62 132 l0 98 35 0 35 0 0
-110 c0 -107 -1 -110 -29 -142 -28 -31 -33 -33 -100 -33 -63 0 -73 3 -97 26
-31 31 -43 84 -44 187 l0 72 40 0 40 0 0 -97z m860 -48 l0 -145 -35 0 -35 0 0
145 0 145 35 0 35 0 0 -145z m532 59 l63 -85 3 85 3 86 34 0 35 0 0 -145 0
-145 -33 0 c-30 0 -39 8 -97 87 l-65 87 -3 -87 -3 -87 -34 0 -35 0 0 145 0
145 34 0 c31 0 40 -7 98 -86z m-1532 -379 c0 -10 -11 -15 -35 -15 -24 0 -35
-5 -35 -15 0 -10 10 -15 30 -15 20 0 30 -5 30 -15 0 -10 -10 -15 -30 -15 -25
0 -30 -4 -30 -25 0 -14 -4 -25 -10 -25 -6 0 -10 30 -10 70 l0 70 45 0 c33 0
45 -4 45 -15z m205 -10 c31 -30 32 -62 3 -92 -31 -33 -80 -31 -108 4 -55 70
42 151 105 88z m213 9 c25 -17 29 -46 8 -67 -13 -12 -13 -17 0 -36 13 -19 13
-21 0 -21 -8 0 -20 9 -26 20 -6 11 -20 20 -30 20 -13 0 -20 -7 -20 -20 0 -11
-4 -20 -10 -20 -6 0 -10 30 -10 70 l0 70 33 0 c18 0 43 -7 55 -16z m142 -27
c0 -50 18 -81 46 -76 15 3 20 15 24 58 7 74 30 81 30 10 0 -61 -19 -89 -61
-89 -43 0 -59 24 -59 86 0 30 5 54 10 54 6 0 10 -19 10 -43z m255 3 c10 -22
21 -40 25 -40 4 0 15 18 25 40 29 63 45 52 45 -30 0 -40 -4 -70 -10 -70 -5 0
-10 21 -11 48 l0 47 -22 -42 c-11 -24 -24 -43 -27 -43 -3 0 -16 19 -27 43
l-22 42 0 -47 c-1 -27 -5 -48 -11 -48 -6 0 -10 30 -10 70 0 82 16 93 45 30z"/>
<path d="M1870 3210 l0 -50 145 0 145 0 0 50 0 50 -145 0 -145 0 0 -50z"/>
<path d="M3231 1734 c-45 -58 -10 -144 59 -144 71 0 109 99 57 148 -34 32 -89
30 -116 -4z"/>
<path d="M1238 1762 c-16 -3 -18 -15 -18 -88 l0 -84 39 0 c52 0 81 25 88 75 8
65 -43 110 -109 97z"/>
<path d="M2212 1328 c-21 -21 -14 -57 14 -70 36 -17 59 0 59 43 0 30 -3 34
-30 37 -17 2 -36 -3 -43 -10z"/>
<path d="M2440 1314 c0 -22 4 -25 28 -22 19 2 28 9 30 26 3 19 -1 22 -27 22
-27 0 -31 -4 -31 -26z"/>
</g>
</svg>
