<?xml version="1.0" standalone="no"?>
<!DOCTYPE svg PUBLIC "-//W3C//DTD SVG 20010904//EN"
 "http://www.w3.org/TR/2001/REC-SVG-20010904/DTD/svg10.dtd">
<svg version="1.0" xmlns="http://www.w3.org/2000/svg"
 fill="#000"  height="100%" role="img" viewBox="0 0 192 192" width="100%" 
 preserveAspectRatio="xMidYMid meet">

<g transform="translate(0.000000,500.000000) scale(0.100000,-0.100000)"
fill="#000000" stroke="none">
<path d="M0 2500 l0 -2500 2500 0 2500 0 0 2500 0 2500 -2500 0 -2500 0 0
-2500z m3234 1402 c137 -64 244 -175 328 -338 81 -158 133 -370 126 -519 l-3
-70 -23 45 c-12 25 -19 34 -16 20 4 -14 15 -39 25 -56 24 -40 26 -121 4 -121
-9 0 -14 6 -11 14 3 8 2 12 -3 9 -14 -9 -68 57 -91 112 -13 29 -24 51 -26 49
-10 -10 49 -118 90 -165 49 -57 52 -68 35 -140 -22 -101 -32 -132 -40 -132
-11 0 -29 35 -29 57 1 16 3 15 20 -6 11 -13 20 -19 20 -13 0 16 -30 43 -41 37
-15 -10 -10 -41 11 -68 26 -33 26 -50 -1 -42 -19 6 -20 4 -14 -42 l6 -48 -21
37 c-24 45 -85 88 -120 87 l-25 -1 26 -7 c44 -10 98 -54 113 -91 13 -32 13
-36 -5 -44 -15 -7 -31 -1 -72 26 -28 20 -63 41 -77 48 -23 12 -24 14 -5 20 18
7 18 8 -5 12 l-25 5 25 11 c22 10 21 11 -15 6 -22 -4 -42 -8 -44 -10 -8 -7 15
-27 62 -51 29 -14 65 -36 80 -49 16 -13 40 -27 53 -30 29 -7 28 -15 -19 -92
-28 -46 -33 -51 -44 -36 -7 9 -19 14 -28 11 -22 -9 -18 -26 5 -20 25 7 26 -14
3 -47 l-18 -25 -6 30 -7 30 -1 -35 c-2 -63 -118 -155 -251 -200 -116 -40 -269
-15 -386 62 -65 44 -154 136 -154 160 0 25 54 237 77 305 17 49 22 53 96 92
112 59 186 111 259 183 134 133 214 267 244 408 23 113 1 188 -68 230 -170
103 -442 -215 -639 -746 -48 -131 -55 -143 -86 -158 -18 -9 -38 -16 -43 -16
-4 0 -15 28 -23 63 -14 62 -13 66 34 302 31 153 47 252 43 272 -3 18 -22 52
-41 77 l-34 44 17 57 c11 34 22 54 30 51 19 -7 51 21 59 51 10 41 53 110 87
138 37 31 51 32 43 3 -6 -22 -5 -22 6 -3 6 11 19 26 28 33 14 11 10 12 -24 6
-22 -4 -42 -10 -45 -14 -10 -13 -70 -29 -70 -19 0 6 9 13 19 16 11 3 17 11 15
17 -10 25 20 34 91 29 48 -4 63 -9 50 -14 -15 -6 -11 -8 18 -8 21 -1 60 -12
87 -26 46 -23 130 -48 138 -40 4 4 -135 70 -170 80 -13 4 -47 26 -76 48 l-54
41 34 27 c108 89 200 121 334 115 77 -3 102 -8 158 -34z m-484 -152 l35 -29
-45 0 c-25 -1 -55 2 -68 5 l-23 7 22 23 c29 31 38 30 79 -6z m150 -80 c8 -5
11 -10 5 -10 -5 0 -17 5 -25 10 -8 5 -10 10 -5 10 6 0 17 -5 25 -10z m-286
-42 c-37 -63 -57 -89 -74 -98 -20 -11 -20 -8 4 39 23 45 47 70 69 71 5 0 5 -6
1 -12z m-64 -128 c0 -20 -25 -38 -37 -26 -5 5 24 46 34 46 1 0 3 -9 3 -20z
m697 -5 c107 -71 76 -283 -72 -483 -98 -134 -216 -232 -370 -310 l-80 -40 -24
-73 c-13 -40 -36 -121 -51 -181 -30 -119 -29 -119 -79 -35 -22 36 -24 37 -42
21 -11 -10 -21 -15 -24 -12 -3 2 6 42 20 89 31 107 32 115 3 95 -12 -9 -28
-16 -35 -16 -26 0 -12 18 31 40 43 23 44 26 101 174 203 533 461 836 622 731z
m-754 -212 c20 -26 27 -48 27 -79 0 -38 -76 -433 -85 -442 -20 -20 -25 353 -6
458 21 116 22 117 64 63z m-95 -695 c-18 -88 -56 -168 -78 -168 -12 0 -31 -44
-82 -190 -22 -63 -47 -128 -55 -145 -10 -22 3 -12 51 38 37 37 66 63 66 58 0
-6 -5 -13 -10 -16 -6 -4 -8 -10 -6 -14 3 -3 -11 -17 -29 -30 -30 -20 -88 -84
-109 -118 -4 -7 15 -1 42 12 66 33 74 32 61 -5 -11 -30 -53 -50 -109 -50 -16
0 -34 -12 -52 -34 -34 -42 -35 -51 -5 -32 26 17 128 48 135 41 3 -3 0 -16 -6
-29 -11 -25 -72 -46 -136 -46 -46 0 -46 13 3 81 45 64 84 139 117 226 30 78
31 114 4 131 -11 7 -20 22 -20 33 0 14 -5 19 -14 16 -28 -11 -26 7 4 35 17 15
33 28 35 28 8 0 25 -67 25 -104 l1 -41 30 65 c17 36 34 92 39 126 9 74 37 138
80 187 17 20 33 37 35 37 2 0 -6 -42 -17 -92z m1222 -39 c0 -6 -4 -7 -10 -4
-5 3 -10 11 -10 16 0 6 5 7 10 4 6 -3 10 -11 10 -16z m-1098 -40 l-9 -24 -8
24 c-5 16 -3 26 6 32 18 11 22 -1 11 -32z m-364 -48 c27 -23 29 -57 3 -71 -29
-15 -29 -15 -33 40 -1 28 -1 50 2 50 3 -1 15 -9 28 -19z m337 -53 c-4 -18 -12
-39 -18 -46 -17 -22 -98 -74 -104 -68 -13 13 98 146 123 146 3 0 2 -15 -1 -32z
m-170 -123 c-18 -85 -41 -95 -32 -14 6 45 34 106 44 95 3 -3 -2 -39 -12 -81z
m-233 53 c-7 -7 -12 -8 -12 -2 0 6 3 14 7 17 3 4 9 5 12 2 2 -3 -1 -11 -7 -17z
m18 -21 c0 -15 -59 -62 -67 -53 -6 5 51 66 61 66 3 0 6 -6 6 -13z m414 -10
c-2 -7 -13 -18 -24 -25 -17 -11 -20 -10 -20 7 0 19 12 29 37 30 7 1 10 -5 7
-12z m-63 -29 c-9 -27 -53 -51 -93 -52 -15 -1 -28 -4 -28 -8 0 -5 -4 -8 -10
-8 -5 0 0 16 11 35 22 37 37 49 19 16 -17 -33 -12 -32 36 4 54 41 77 46 65 13z
m-357 -40 c-4 -24 -16 -61 -27 -82 -18 -38 -20 -39 -33 -21 -8 10 -14 35 -14
54 0 28 7 42 32 63 18 15 36 28 41 28 4 0 4 -19 1 -42z m-186 -6 l23 -18 -21
-19 c-18 -16 -23 -17 -30 -5 -12 18 -13 60 -2 60 4 0 17 -8 30 -18z m42 -40
c0 -14 -49 -56 -57 -49 -3 4 4 18 17 32 24 25 40 32 40 17z m480 -42 c0 -19
-5 -30 -14 -30 -30 0 -116 24 -116 32 0 14 41 27 88 27 40 1 42 0 42 -29z
m-439 -26 c11 -26 17 -49 15 -52 -9 -8 -53 7 -77 27 l-24 19 24 26 c14 14 28
26 33 26 5 0 18 -21 29 -46z m542 30 c26 -9 47 -20 47 -25 0 -5 -32 -9 -71 -9
-61 0 -70 2 -65 16 3 9 6 20 6 25 0 13 31 11 83 -7z m-486 -106 c-2 -13 -4 -3
-4 22 0 25 2 35 4 23 2 -13 2 -33 0 -45z m-56 -56 c5 -13 9 -35 9 -49 0 -25
-1 -25 -19 -9 -25 23 -48 72 -55 116 l-6 35 31 -35 c17 -19 35 -45 40 -58z
m-115 -87 c-14 -28 -34 -59 -45 -69 -18 -16 -18 -15 -9 36 5 29 24 82 41 118
l32 65 3 -49 c2 -36 -3 -62 -22 -101z m451 118 c-37 -14 -70 -23 -73 -20 -3 3
-1 15 6 26 9 18 20 21 73 20 l62 0 -68 -26z m-287 -24 c0 -11 -4 -17 -10 -14
-5 3 -10 13 -10 21 0 8 5 14 10 14 6 0 10 -9 10 -21z m286 -68 c-6 -10 -96
-34 -102 -28 -3 2 -2 12 2 21 5 12 19 16 56 16 27 0 47 -4 44 -9z m-331 -62
c-5 -15 -4 -19 5 -14 25 16 -9 -30 -59 -79 -27 -27 -48 -53 -45 -57 2 -4 -4
-10 -14 -13 -22 -7 -90 -56 -78 -56 5 0 -18 -13 -50 -30 -32 -16 -60 -28 -62
-26 -1 2 32 28 75 58 110 78 176 140 204 192 26 50 34 58 24 25z m140 -39 c-7
-12 -128 -80 -143 -80 -15 0 -3 36 19 56 26 24 137 45 124 24z m-231 -34 c-7
-18 -55 -55 -123 -96 l-53 -30 23 32 c29 43 55 65 104 88 48 24 56 24 49 6z
m451 -21 c-25 -20 -77 -35 -147 -42 -59 -6 -68 0 -45 29 14 19 31 22 137 26
69 2 73 1 55 -13z m-381 -10 c-4 -9 -15 -20 -26 -26 -17 -9 -18 -8 -9 9 9 17
17 24 38 31 1 1 0 -6 -3 -14z m167 -7 c-7 -20 -16 -23 -67 -26 -50 -2 -56 0
-39 10 11 7 40 18 65 24 25 7 46 13 47 13 1 1 -1 -9 -6 -21z m-377 -13 c-9
-14 -18 -25 -21 -25 -5 0 5 18 20 38 17 22 18 13 1 -13z m232 -30 c-11 -8 -25
-15 -30 -15 -6 1 0 7 14 15 32 19 40 18 16 0z m114 -11 c0 -3 -5 -14 -10 -25
-12 -22 -42 -24 -85 -5 l-30 13 25 6 c70 17 100 20 100 11z m136 -16 c54 -11
56 -12 30 -19 -16 -5 -60 -11 -98 -15 -55 -5 -68 -4 -68 8 0 39 37 46 136 26z
m-271 -112 l40 -12 -35 -18 c-29 -16 -49 -18 -130 -13 -89 6 -93 6 -56 -7 56
-21 68 -36 27 -36 -33 0 -66 13 -89 37 -7 7 -20 13 -28 13 -8 0 -14 5 -14 10
0 13 13 13 27 -1 11 -11 101 10 133 31 20 13 76 11 125 -4z m-69 -117 l19 -21
-35 7 c-19 4 -46 13 -60 21 -24 13 -24 13 16 14 29 0 46 -6 60 -21z"/>
<path d="M2663 3589 c-28 -33 -28 -39 -3 -39 23 0 33 18 28 48 -3 17 -5 16
-25 -9z m9 -21 c-7 -7 -12 -8 -12 -2 0 6 3 14 7 17 3 4 9 5 12 2 2 -3 -1 -11
-7 -17z"/>
<path d="M3456 3278 c8 -29 36 -89 31 -68 -3 8 -7 26 -11 40 l-7 25 15 -25
c10 -16 16 -19 16 -10 1 21 75 -63 111 -125 16 -27 29 -45 29 -40 0 22 -58
106 -112 164 -60 64 -84 77 -72 39z"/>
<path d="M3491 3183 c-1 -16 40 -126 44 -121 2 2 -7 33 -20 68 -13 36 -24 60
-24 53z"/>
<path d="M3407 2922 c-27 -9 -49 -21 -49 -27 -2 -19 187 -114 200 -101 2 2
-18 12 -45 22 -26 10 -68 29 -92 43 -38 21 -42 26 -25 32 11 5 13 8 5 8 -23 1
-5 12 35 21 22 5 47 5 63 -1 32 -13 88 -65 107 -101 15 -29 7 -37 -15 -15 -9
8 -12 8 -7 0 3 -6 0 -14 -6 -16 -8 -4 -7 -6 4 -6 9 -1 31 -13 48 -27 l31 -27
-37 72 c-39 76 -92 128 -141 136 -15 3 -50 -3 -76 -13z"/>
<path d="M3460 2546 c0 -2 8 -10 18 -17 15 -13 16 -12 3 4 -13 16 -21 21 -21
13z"/>
<path d="M3540 2506 c0 -2 8 -10 18 -17 15 -13 16 -12 3 4 -13 16 -21 21 -21
13z"/>
<path d="M3183 3449 c-90 -44 -211 -210 -319 -434 -60 -126 -129 -304 -120
-312 7 -8 140 64 201 109 76 56 164 146 221 224 106 148 150 332 98 412 -18
27 -28 27 -81 1z m78 -21 c18 -34 5 -164 -23 -235 -68 -168 -248 -357 -425
-447 -29 -14 -53 -24 -53 -22 0 17 71 191 119 291 145 303 332 506 382 413z"/>
</g>
</svg>
